<svg width="12" height="13" viewBox="0 0 12 13" fill="none" xmlns="http://www.w3.org/2000/svg">
<g clip-path="url(#clip0_1_238)">
<path d="M11.793 3.75875C11.6634 3.1142 11.3404 2.52446 10.8672 2.06809C10.3939 1.61172 9.79285 1.31039 9.14403 1.20425C8.65654 1.12654 8.15769 1.1626 7.68645 1.30962C7.21521 1.45664 6.78435 1.71063 6.42753 2.05175C6.31138 2.15976 6.15864 2.21981 6.00003 2.21981C5.84141 2.21981 5.68868 2.15976 5.57253 2.05175C4.9801 1.47873 4.18963 1.15605 3.36544 1.15079C2.54125 1.14553 1.74673 1.45809 1.14704 2.0235C0.547345 2.58891 0.18861 3.36368 0.145401 4.18676C0.102192 5.00983 0.377832 5.8179 0.915027 6.443L5.35203 11.7305C5.43144 11.825 5.53056 11.9009 5.64243 11.953C5.75431 12.0052 5.87623 12.0322 5.99965 12.0322C6.12307 12.0322 6.24499 12.0052 6.35687 11.953C6.46875 11.9009 6.56787 11.825 6.64728 11.7305L11.0843 6.443C11.398 6.0788 11.6249 5.64803 11.7477 5.18326C11.8705 4.71849 11.886 4.23189 11.793 3.76025V3.75875Z" fill="white"/>
</g>
<defs>
<clipPath id="clip0_1_238">
<rect width="12" height="12" fill="white" transform="translate(0 0.59375)"/>
</clipPath>
</defs>
</svg>
