<svg width="16" height="17" viewBox="0 0 16 17" fill="none" xmlns="http://www.w3.org/2000/svg">
<path d="M8.15199 16.2188H7.99999C5.88494 16.1987 3.86391 15.3418 2.37897 13.8355C0.894031 12.3293 0.0660321 10.2962 0.0760791 8.18112C0.0861262 6.06599 0.933402 4.04092 2.43259 2.54884C3.93177 1.05676 5.96084 0.219116 8.07599 0.219116C10.1911 0.219116 12.2202 1.05676 13.7194 2.54884C15.2186 4.04092 16.0659 6.06599 16.0759 8.18112C16.0859 10.2962 15.2579 12.3293 13.773 13.8355C12.2881 15.3418 10.267 16.1987 8.15199 16.2188ZM7.74199 2.01676C7.51599 2.28976 7.27899 2.72976 7.06499 3.33976C6.69599 4.39476 6.43899 5.83576 6.37799 7.46876H9.92499C9.86499 5.83576 9.60699 4.39476 9.23799 3.33976C9.02499 2.72976 8.78799 2.28976 8.56199 2.01676C8.36799 1.78176 8.23599 1.73176 8.17699 1.72076H8.13299C8.07799 1.72776 7.94299 1.77276 7.74199 2.01676ZM4.87699 7.46876C4.93899 5.69776 5.21699 4.08276 5.64999 2.84476C5.74899 2.56076 5.85799 2.29076 5.97899 2.03876C4.79831 2.42586 3.75315 3.14292 2.96706 4.10516C2.18096 5.0674 1.6868 6.23459 1.54299 7.46876H4.87699ZM1.54299 8.96875C1.6868 10.2029 2.18096 11.3701 2.96706 12.3324C3.75315 13.2946 4.79831 14.0116 5.97899 14.3988C5.85439 14.1363 5.74422 13.8672 5.64899 13.5928C5.21599 12.3548 4.93899 10.7398 4.87699 8.96875H1.54299ZM6.37799 8.96875C6.43899 10.6018 6.69599 12.0428 7.06499 13.0978C7.27899 13.7078 7.51599 14.1478 7.74199 14.4208C7.94399 14.6648 8.07799 14.7108 8.13299 14.7178L8.17699 14.7168C8.23699 14.7068 8.36699 14.6558 8.56199 14.4208C8.78799 14.1478 9.02499 13.7078 9.23799 13.0978C9.60799 12.0428 9.86399 10.6018 9.92499 8.96875H6.37799ZM11.426 8.96875C11.365 10.7398 11.087 12.3548 10.654 13.5928C10.572 13.8278 10.483 14.0528 10.386 14.2668C11.4802 13.8343 12.4367 13.1132 13.1535 12.1803C13.8704 11.2473 14.3209 10.1374 14.457 8.96875H11.427H11.426ZM14.457 7.46876C14.3208 6.30012 13.8703 5.19028 13.1534 4.25735C12.4365 3.32442 11.4801 2.6033 10.386 2.17076C10.483 2.38476 10.572 2.61076 10.654 2.84476C11.087 4.08276 11.365 5.69776 11.426 7.46876H14.457Z" fill="white"/>
</svg>
