<svg width="24" height="25" viewBox="0 0 24 25" fill="none" xmlns="http://www.w3.org/2000/svg">
<path d="M10.533 1.87275C5.35298 1.87275 1.12598 6.01275 1.12598 11.1517C1.12598 16.2907 5.35198 20.4307 10.533 20.4307C12.767 20.4307 14.823 19.6607 16.44 18.3727L20.793 22.7257C20.8852 22.8213 20.9956 22.8974 21.1176 22.9499C21.2396 23.0023 21.3708 23.0298 21.5036 23.031C21.6364 23.0322 21.768 23.0069 21.8909 22.9566C22.0138 22.9063 22.1255 22.832 22.2194 22.7381C22.3133 22.6443 22.3875 22.5326 22.4378 22.4097C22.4881 22.2868 22.5134 22.1551 22.5122 22.0223C22.5111 21.8896 22.4835 21.7583 22.4311 21.6363C22.3787 21.5143 22.3025 21.404 22.207 21.3118L17.863 16.9678C19.2079 15.3281 19.942 13.2724 19.94 11.1517C19.94 6.01175 15.714 1.87175 10.533 1.87175V1.87275ZM3.12598 11.1517C3.12598 7.14575 6.42798 3.87175 10.533 3.87175C14.638 3.87175 17.94 7.14575 17.94 11.1517C17.94 15.1577 14.638 18.4307 10.533 18.4307C6.42798 18.4307 3.12598 15.1587 3.12598 11.1517Z" fill="white" fill-opacity="0.7"/>
</svg>
